HIERARCHY
ROOT hip
{
	OFFSET 0.000000 0.000000 0.000000 
	CHANNELS 6 Xposition Yposition Zposition Xrotation Zrotation Yrotation
	JOINT abdomen
	{
		OFFSET 0.000000 3.402643 0.000000 
		CHANNELS 3 Xrotation Zrotation Yrotation
		JOINT chest
		{
			OFFSET 0.000000 8.438565 -0.680529 
			CHANNELS 3 Xrotation Zrotation Yrotation
			JOINT neck
			{
				OFFSET 0.000000 10.207942 -0.272212 
				CHANNELS 3 Xrotation Zrotation Yrotation
				JOINT head
				{
					OFFSET 0.000000 3.130431 0.000000 
					CHANNELS 3 Xrotation Zrotation Yrotation
					End Site
					{
						OFFSET 0.000000 3.130435 0.000000 
					}
				}
			}
			JOINT lCollar
			{
				OFFSET 3.470700 6.669187 -0.816635 
				CHANNELS 3 Yrotation Zrotation Xrotation
				JOINT lShldr
				{
					OFFSET 3.198488 0.000000 0.000000 
					CHANNELS 3 Zrotation Yrotation Xrotation
					JOINT lForeArm
					{
						OFFSET 10.139888 0.000000 0.000000 
						CHANNELS 3 Yrotation Zrotation Xrotation
						JOINT lHand
						{
							OFFSET 8.370511 0.000000 0.000000 
							CHANNELS 3 Zrotation Yrotation Xrotation
							End Site
							{
								OFFSET 4.083176 0.000000 0.000000 
							}
						}
					}
				}
			}
			JOINT rCollar
			{
				OFFSET -3.470700 6.669187 -0.816635 
				CHANNELS 3 Yrotation Zrotation Xrotation
				JOINT rShldr
				{
					OFFSET -3.198488 0.000000 0.000000 
					CHANNELS 3 Zrotation Yrotation Xrotation
					JOINT rForeArm
					{
						OFFSET -10.139888 0.000000 0.000000 
						CHANNELS 3 Yrotation Zrotation Xrotation
						JOINT rHand
						{
							OFFSET -8.370511 0.000000 0.000000 
							CHANNELS 3 Zrotation Yrotation Xrotation
							End Site
							{
								OFFSET -4.083176 0.000000 0.000000 
							}
						}
					}
				}
			}
		}
	}
	JOINT lThigh
	{
		OFFSET 5.308129 -1.633274 1.361059 
		CHANNELS 3 Xrotation Zrotation Yrotation
		JOINT lShin
		{
			OFFSET -2.041588 -20.007561 0.000000 
			CHANNELS 3 Xrotation Zrotation Yrotation
			JOINT lFoot
			{
				OFFSET 0.000000 -19.190928 -1.224953 
				CHANNELS 3 Xrotation Yrotation Zrotation
				End Site
				{
					OFFSET 0.000000 -2.449906 4.627600 
				}
			}
		}
	}
	JOINT rThigh
	{
		OFFSET -5.308129 -1.633274 1.361059 
		CHANNELS 3 Xrotation Zrotation Yrotation
		JOINT rShin
		{
			OFFSET 2.041588 -20.007561 0.000000 
			CHANNELS 3 Xrotation Zrotation Yrotation
			JOINT rFoot
			{
				OFFSET 0.000000 -19.190928 -1.224953 
				CHANNELS 3 Xrotation Yrotation Zrotation
				End Site
				{
					OFFSET 0.000000 -2.449906 4.627600 
				}
			}
		}
	}
}
MOTION
Frames: 11
Frame Time: 0.016667
27.014444 51.786179 0.892553 -10.991861 -1.712855 4.748055 24.190334 5.067761 0.077797 3.288033 0.790695 -2.392692 -4.582247 1.815846 -0.205586 11.880300 -2.420467 1.954682 -18.483810 -11.198345 -0.582322 -65.081039 13.911723 -25.898060 -25.033600 -5.000000 24.905687 -13.427049 -2.679141 5.697316 14.609076 12.290574 -0.642668 65.170334 -10.295743 -22.811230 25.681702 5.000000 15.666210 4.807156 -30.000000 8.922045 15.286838 13.716268 2.651367 11.524965 -4.549623 -1.107533 -14.434179 4.530110 -4.022979 22.288202 -6.365886 -7.316308 -2.242333 3.022224 -0.052318 -4.780319 -13.049511 7.427239 
27.150000 51.780880 0.879215 -11.064057 -1.702731 4.904236 24.248844 5.223953 0.110961 3.297799 0.790695 -2.392692 -4.591712 1.728945 -0.192441 11.933666 -2.459700 1.817666 -18.504465 -11.305616 -0.587850 -65.132553 13.672679 -25.768829 -25.246372 -5.000000 24.988333 -13.429387 -2.695800 5.711695 14.608627 12.251567 -0.640652 65.097122 -10.326022 -22.797249 25.650181 5.000000 15.687532 4.843871 -30.000000 8.942168 15.094377 13.601264 2.427866 11.982061 -4.558828 -1.153180 -14.636378 4.587273 -3.811560 22.349739 -6.473827 -7.384332 -2.156546 3.025125 -0.027249 -4.728146 -13.195307 7.560472 
27.290190 51.776440 0.862352 -11.105460 -1.692726 5.011901 24.287432 5.352823 0.132139 3.307150 0.800453 -2.402457 -4.620818 1.671010 -0.183678 11.955664 -2.489088 1.739610 -18.458326 -11.380543 -0.602878 -65.215561 13.468999 -25.657873 -25.472136 -5.000000 25.101645 -13.439658 -2.720564 5.688129 14.608180 12.212558 -0.638636 65.013908 -10.313969 -22.739323 25.602537 5.000000 15.694127 4.858137 -30.000000 8.977206 14.929397 13.485675 2.226475 12.317552 -4.640470 -1.177510 -14.835488 4.600163 -3.600336 22.351858 -6.640464 -7.469032 -2.036299 3.048324 -0.030256 -4.706084 -13.288364 7.694933 
27.435017 51.772835 0.841965 -11.106615 -1.682820 5.080231 24.307331 5.456501 0.163365 3.325849 0.810199 -2.451280 -4.679596 1.640582 -0.188948 11.965262 -2.508623 1.729851 -18.351328 -11.419568 -0.604898 -65.331482 13.274185 -25.572727 -25.717802 -5.000000 25.235083 -13.449020 -2.763885 5.628844 14.598189 12.193054 -0.637628 64.907768 -10.263751 -22.610893 25.530455 5.000000 15.693788 4.840140 -30.000000 9.045749 14.771817 13.347663 2.061841 12.549231 -4.715553 -1.251603 -15.018116 4.644551 -3.373484 22.263712 -6.825752 -7.539770 -1.859872 3.067196 -0.039063 -4.689025 -13.323772 7.839704 
27.579840 51.769230 0.821578 -11.106586 -1.663213 5.138801 24.327019 5.551202 0.190765 3.334770 0.819943 -2.509869 -4.738095 1.611615 -0.184566 11.975010 -2.537932 1.710335 -18.242552 -11.471402 -0.598331 -65.445129 13.084644 -25.476431 -25.949320 -5.000000 25.369848 -13.458302 -2.807230 5.569578 14.599895 12.161337 -0.647411 64.810791 -10.209413 -22.484432 25.469353 5.000000 15.683411 4.827907 -30.000000 9.100938 14.621164 13.216675 1.890051 12.790159 -4.854415 -1.283255 -15.189799 4.731976 -3.089273 22.184179 -7.011611 -7.620433 -1.698589 3.103007 -0.049060 -4.686218 -13.390573 7.962373 
27.698362 51.772411 0.780349 -10.980022 -1.789766 5.100042 24.241314 5.650069 0.227231 3.333311 0.878520 -2.480568 -4.777285 1.650238 -0.190408 11.995983 -2.518435 1.690825 -18.222191 -11.393387 -0.592371 -65.655037 13.004779 -25.439939 -26.145340 -5.000000 25.393715 -13.554666 -2.895593 5.586755 14.580814 12.200349 -0.649434 64.705696 -10.109521 -22.269737 25.441309 5.000000 15.495628 4.819333 -30.000000 9.248144 14.453048 13.251995 1.717889 12.834995 -5.009004 -1.350422 -15.281757 4.831485 -2.889523 21.866369 -7.127320 -7.663728 -1.442758 3.176973 -0.015227 -4.716403 -13.352708 8.072129 
27.816885 51.775597 0.739119 -10.852102 -1.906633 5.051549 24.164566 5.743665 0.251671 3.321967 0.937093 -2.470797 -4.826277 1.698516 -0.197711 12.027137 -2.498950 1.661558 -18.211599 -11.315371 -0.588352 -65.867104 12.929358 -25.409733 -26.346109 -5.000000 25.417852 -13.660779 -2.982955 5.605222 14.561624 12.229608 -0.650950 64.600578 -10.017847 -22.052912 25.406235 5.000000 15.291544 4.823673 -30.000000 9.392183 14.255126 13.259631 1.521272 12.900429 -5.164664 -1.380509 -15.366764 4.988715 -2.613643 21.563374 -7.253646 -7.708575 -1.199551 3.277342 0.027264 -4.738710 -13.245851 8.178538 
27.912081 51.783863 0.687594 -10.719234 -2.130907 4.885964 24.120462 5.868537 0.330717 3.281801 0.985909 -2.441495 -4.846154 1.795073 -0.212316 11.999256 -2.450142 1.661561 -18.231636 -11.185538 -0.590918 -66.072556 12.902101 -25.380987 -26.498739 -5.000000 25.423460 -13.707072 -3.068861 5.609146 14.532784 12.268620 -0.652973 64.533195 -9.886517 -21.798094 25.434826 5.000000 15.007082 4.835585 -30.000000 9.519733 14.078859 13.346049 1.489911 12.972811 -5.270955 -1.444995 -15.486117 5.091224 -2.432401 21.100662 -7.333961 -7.560997 -0.770435 3.383438 0.053269 -4.905600 -13.111200 8.339236 
27.983953 51.797218 0.625771 -10.568562 -2.453007 4.603745 24.100815 6.026906 0.487461 3.232358 1.024970 -2.383074 -4.836664 1.951025 -0.226033 11.932239 -2.362253 1.690835 -18.278521 -11.000238 -0.581367 -66.290627 12.936406 -25.359457 -26.601364 -5.000000 25.408264 -13.695349 -3.172264 5.602765 14.504171 12.327137 -0.656005 64.511574 -9.708226 -21.498093 25.525221 5.000000 14.636080 4.868217 -30.000000 9.637720 13.880325 13.510987 1.572522 13.079408 -5.321806 -1.449239 -15.614028 5.290480 -2.252681 20.516640 -7.382546 -7.275794 -0.194331 3.532450 0.089251 -5.242813 -12.966734 8.512440 
28.055826 51.810577 0.563948 -10.415455 -2.785041 4.321263 24.100687 6.179503 0.632039 3.183230 1.054270 -2.324485 -4.827185 2.106977 -0.239750 11.865700 -2.274378 1.709963 -18.333529 -10.827764 -0.563208 -66.498314 12.962413 -25.329317 -26.713179 -5.000000 25.388006 -13.692371 -3.265259 5.594642 14.483251 12.388094 -0.649801 64.481621 -9.533550 -21.198101 25.604498 5.000000 14.283454 4.899031 -30.000000 9.753874 13.685381 13.667198 1.672189 13.178446 -5.361479 -1.500328 -15.739209 5.452301 -2.092561 19.916397 -7.411207 -6.986107 0.389761 3.672772 0.126894 -5.544711 -12.844108 8.700130 
28.076023 51.827812 0.489072 -10.308101 -3.215785 3.745841 24.249023 6.345863 0.798386 3.250968 1.103100 -2.265898 -5.023401 2.309745 -0.270417 11.658282 -2.254441 2.032751 -18.135700 -10.574207 -0.550117 -66.668518 12.895332 -25.307093 -26.715378 -5.000000 25.270090 -13.638513 -3.185753 5.481315 14.512547 12.388095 -0.649801 64.510406 -9.104594 -20.766901 25.826077 5.000000 13.838224 4.985802 -30.000000 9.794382 13.573535 13.877202 2.053778 13.406173 -5.293853 -1.473880 -15.856854 5.646928 -2.091007 18.954515 -7.607305 -6.327559 1.756956 4.039606 0.241117 -6.430641 -12.466973 9.006730 
